<svg xmlns="http://www.w3.org/2000/svg" xmlns:xlink="http://www.w3.org/1999/xlink" viewBox="0 0 100 17"><title>Keiser Logo</title><defs><path id="a" d="M99.758 16.17H0V0h99.758v16.17z"/></defs><g fill="#d10a2c" fill-rule="evenodd"><mask id="b" fill="#fff"><use xlink:href="#a"/></mask><path mask="url(#b)" d="M0 16.17L2.85.002h4.926L6.693 6.146l5.44-6.144h6.478L12.46 6.95l3.957 9.22H11.14S9 11.185 8.794 10.71a1.135 1.135 0 0 0-1.04-.684H6.008L4.925 16.17H0zM35.225.002H22.857c-2.046 0-3.656 1.497-3.98 3.34-.326 1.843-.878 4.964-1.426 8.084-.46 2.63 1.46 4.743 3.98 4.743h10.945l.684-3.88H23.57c-.934 0-1.194-.88-1.114-1.33l.165-.934h10.835l.684-3.88H23.307s.158-.717.234-1.33c.077-.61.685-.934 1.115-.934h9.886l.685-3.88zM42.646.002H37.72L34.87 16.17h4.925L42.645 0zM60.31.002H48.27c-2.452 0-3.75 2.035-3.98 3.34l-.342 1.94c-.525 2.973 2.067 4.744 3.98 4.744h4.67c.995 0 1.132 1.132 1.132 1.132s-.1 1.13-1.132 1.13H43.04l-.684 3.88h12.04c2.642 0 3.78-2.194 3.98-3.34.203-1.143-.18 1.16.343-1.94.523-3.098-2.03-4.742-3.98-4.742h-4.67c-1.043 0-1.132-1.132-1.132-1.132s.048-1.132 1.13-1.132h9.56l.683-3.88zM78.43.002H66.06c-2.045 0-3.655 1.497-3.98 3.34-.325 1.843-.877 4.964-1.426 8.084-.462 2.63 1.46 4.743 3.98 4.743H75.58l.685-3.88h-9.487c-.934 0-1.194-.88-1.114-1.33l.164-.934h10.836l.684-3.88H66.51s.158-.717.235-1.33c.076-.61.683-.934 1.115-.934h9.885l.684-3.88zM89.733 6.146h-4.96l.4-2.264h4.56s1.174.077 1.132 1.132c-.044 1.1-1.132 1.132-1.132 1.132m2.14-6.144H80.932L78.08 16.17h4.925l1.084-6.144h1.745c.52 0 .893.343 1.04.685l2.344 5.46h5.277l-2.87-6.685c1.15.04 3.588-.85 3.98-3.34.182-.997.2-1.087.248-1.4.25-1.64-.752-4.744-3.98-4.744M98.153 2.93c-.72 0-1.306-.593-1.306-1.325S97.432.28 98.153.28c.722 0 1.307.593 1.307 1.325s-.585 1.326-1.307 1.326m0-2.93a1.605 1.605 0 1 0 0 3.21 1.605 1.605 0 0 0 0-3.21"/><path mask="url(#b)" d="M98.156 1.49h-.418v-.5h.466s.316-.014.295.245c-.023.276-.344.255-.344.255zm.435.45s-.106-.17-.174-.223a.552.552 0 0 0-.11-.067s.414-.015.414-.42c0-.384-.31-.42-.524-.42h-.68V2.37h.222v-.7h.295c.103 0 .227.133.367.37l.195.33h.253l-.257-.432z"/></g></svg>